{"title":"Mickeys.Monster.Musical.2015.DVDRip.x264.AC3-MenaceIISociety","uid":12311998,"size":1133428698,"categoryP":"video","categoryS":"movies","magnet":"?xt=urn:btih:a4d29a03f3f07e3b3f0d9cb3ffd82a427129ba70&amp;dn=Mickeys.Monster.Musical.2015.DVDRip.x264.AC3-MenaceIISociety&amp;tr=udp%3A%2F%2Ftracker.openbittorrent.com%3A80&amp;tr=udp%3A%2F%2Fopen.demonii.com%3A1337&amp;tr=udp%3A%2F%2Ftracker.coppersurfer.tk%3A6969&amp;tr=udp%3A%2F%2Fexodus.desync.com%3A6969","seeders":0,"leechers":0,"uploader":"TvTeam","files":4,"time":1440926694,"description":"------------------------------------------------------------------------\n\n &lt;a href=&quot; https://www.torrenting.com&quot; rel=&quot;nofollow&quot; target=&quot;_NEW&quot;&gt; https://www.torrenting.com&lt;/a&gt;\n\nSign up is OPEN - for time being. Come and have fun\n\n.......................................................................................................................[center][img]http://s9.postimg.org/a78x7dv9r/61_Glh_VSk4_L.jpg[/img]\n\nMickeys.Monster.Musical.2015.DVDRip.x264.AC3-MenaceIISociety\n\nSource: DVDR.R1.NTSC [THANKS]\n\nGeneral\nUnique ID                                : 221448889685211283567227919326806787062 (0xA69981393C78EBE488E15CAD241FC3F6)\nComplete name                            : Mickeys.Monster.Musical.2015.DVDRip.x264.AC3-MenaceIISociety.mkv\nFormat                                   : Matroska\nFormat version                           : Version 2\nFile size                                : 1.03 GiB\nDuration                                 : 1h 55mn\nOverall bit rate mode                    : Variable\nOverall bit rate                         : 1 275 Kbps\nEncoded date                             : UTC 2015-08-29 15:33:49\nWriting application                      : mkvmerge v8.2.0 ('World of Adventure') 32bit\nWriting library                          : libebml v1.3.1 + libmatroska v1.4.2\n\nVideo\nID                                       : 1\nFormat                                   : AVC\nFormat/Info                              : Advanced Video Codec\nFormat profile                           : &lt;a class=&quot;__cf_email__&quot; href=&quot;/cdn-cgi/l/email-protection&quot; data-cfemail=&quot;d69ebfb1be969ae2f8e7&quot;&gt;[email&amp;#160;protected]&lt;/a&gt;&lt;script data-cfhash='f9e31' type=&quot;text/javascript&quot;&gt;\n/* &lt;![CDATA[ */!function(){try{var t=&quot;currentScript&quot;in document?document.currentScript:function(){for(var t=document.getElementsByTagName(&quot;script&quot;),e=t.length;e--;)if(t[e].getAttribute(&quot;data-cfhash&quot;))return t[e]}();if(t&amp;&amp;t.previousSibling){var e,r,n,i,c=t.previousSibling,a=c.getAttribute(&quot;data-cfemail&quot;);if(a){for(e=&quot;&quot;,r=parseInt(a.substr(0,2),16),n=2;a.length-n;n+=2)i=parseInt(a.substr(n,2),16)^r,e+=String.fromCharCode(i);e=document.createTextNode(e),c.parentNode.replaceChild(e,c)}t.parentNode.removeChild(t);}}catch(u){}}()/* ]]&gt; */&lt;/script&gt;\nFormat settings, CABAC                   : Yes\nFormat settings, ReFrames                : 3 frames\nCodec ID                                 : V_MPEG4/ISO/AVC\nDuration                                 : 1h 55mn\nBit rate mode                            : Variable\nBit rate                                 : 1 058 Kbps\nMaximum bit rate                         : 40.0 Mbps\nWidth                                    : 720 pixels\nHeight                                   : 400 pixels\nDisplay aspect ratio                     : 16:9\nFrame rate mode                          : Constant\nFrame rate                               : 23.976 fps\nColor space                              : YUV\nChroma subsampling                       : 4:2:0\nBit depth                                : 8 bits\nScan type                                : Progressive\nBits/(Pixel*Frame)                       : 0.153\nStream size                              : 872 MiB (83%)\nWriting library                          : x264 core 148 r2579 73ae2d1\n\nAudio\nID                                       : 2\nFormat                                   : AC-3\nFormat/Info                              : Audio Coding 3\nFormat profile                           : Dolby Digital\nMode extension                           : CM (complete main)\nFormat settings, Endianness              : Big\nCodec ID                                 : A_AC3\nDuration                                 : 1h 55mn\nBit rate mode                            : Constant\nBit rate                                 : 192 Kbps\nChannel(s)                               : 2 channels\nChannel positions                        : Front: L R\nSampling rate                            : 48.0 KHz\nCompression mode                         : Lossy\nDelay relative to video                  : 15ms\nStream size                              : 158 MiB (15%)\nDefault                                  : Yes\nForced                                   : No\n\n[img]http://s13.postimg.org/u52f17p1j/vlcsnap_2015_08_29_17h37m20s670.jpg[/img]\n[img]http://s13.postimg.org/hazru4m87/vlcsnap_2015_08_29_17h37m27s122.jpg[/img]\n[img]http://s13.postimg.org/qk1y48v47/vlcsnap_2015_08_29_17h37m38s100.jpg[/img] \n \n[img]http://s17.postimg.org/r1iiyw8yn/Untitled_1.png[/img][/center]","torrent":{"xt":"urn:btih:a4d29a03f3f07e3b3f0d9cb3ffd82a427129ba70","amp;dn":"Mickeys.Monster.Musical.2015.DVDRip.x264.AC3-MenaceIISociety","amp;tr":["udp%3A%2F%2Ftracker.openbittorrent.com%3A80","udp%3A%2F%2Fopen.demonii.com%3A1337","udp%3A%2F%2Ftracker.coppersurfer.tk%3A6969","udp%3A%2F%2Fexodus.desync.com%3A6969"],"infoHash":"a4d29a03f3f07e3b3f0d9cb3ffd82a427129ba70","infoHashBuffer":{"type":"Buffer","data":[164,210,154,3,243,240,126,59,63,13,156,179,255,216,42,66,113,41,186,112]},"announce":[],"urlList":[]}}